<svg xmlns="http://www.w3.org/2000/svg" xmlns:xlink="http://www.w3.org/1999/xlink" width="500" zoomAndPan="magnify" viewBox="0 0 375 374.999991" height="500" preserveAspectRatio="xMidYMid meet" version="1.0"><defs><g/><clipPath id="732dc1d9f2"><path d="M 100.742188 100.398438 L 274.464844 100.398438 L 274.464844 274.464844 L 100.742188 274.464844 Z M 100.742188 100.398438 " clip-rule="nonzero"/></clipPath><clipPath id="179e91ebde"><path d="M 187.5 274.257812 C 164.335938 274.257812 142.527344 265.242188 126.160156 248.839844 C 109.757812 232.472656 100.742188 210.664062 100.742188 187.5 C 100.742188 164.335938 109.757812 142.527344 126.160156 126.160156 C 142.527344 109.757812 164.335938 100.742188 187.5 100.742188 C 210.664062 100.742188 232.472656 109.757812 248.839844 126.160156 C 265.242188 142.5625 274.257812 164.335938 274.257812 187.5 C 274.257812 210.664062 265.242188 232.472656 248.839844 248.839844 C 232.472656 265.242188 210.664062 274.257812 187.5 274.257812 Z M 187.5 105.945312 C 165.722656 105.945312 145.230469 114.441406 129.835938 129.835938 C 114.441406 145.230469 105.945312 165.722656 105.945312 187.5 C 105.945312 209.277344 114.441406 229.769531 129.835938 245.164062 C 145.230469 260.558594 165.722656 269.054688 187.5 269.054688 C 209.277344 269.054688 229.769531 260.558594 245.164062 245.164062 C 260.558594 229.769531 269.054688 209.277344 269.054688 187.5 C 269.054688 165.722656 260.558594 145.230469 245.164062 129.835938 C 229.769531 114.441406 209.277344 105.945312 187.5 105.945312 Z M 187.5 105.945312 " clip-rule="nonzero"/></clipPath></defs><rect x="-37.5" width="450" fill="#ffffff" y="-37.499999" height="449.999989" fill-opacity="1"/><rect x="-37.5" width="450" fill="#ffffff" y="-37.499999" height="449.999989" fill-opacity="1"/><rect x="-37.5" width="450" fill="#ffffff" y="-37.499999" height="449.999989" fill-opacity="1"/><g clip-path="url(#732dc1d9f2)"><g clip-path="url(#179e91ebde)"><path fill="#000000" d="M 100.742188 100.742188 L 274.117188 100.742188 L 274.117188 274.117188 L 100.742188 274.117188 Z M 100.742188 100.742188 " fill-opacity="1" fill-rule="nonzero"/></g></g><g fill="#000000" fill-opacity="1"><g transform="translate(140.247389, 230.999985)"><g><path d="M 137.40625 24.640625 C 133.34375 25.703125 129.738281 26.234375 126.59375 26.234375 C 123.457031 26.234375 120.679688 26.039062 118.265625 25.65625 C 115.847656 25.269531 113.265625 24.519531 110.515625 23.40625 C 107.765625 22.289062 105.179688 21.007812 102.765625 19.5625 C 100.347656 18.113281 97.929688 16.328125 95.515625 14.203125 C 91.066406 10.628906 87.03125 6.765625 83.40625 2.609375 C 79.78125 -1.546875 72.796875 -9.347656 62.453125 -20.796875 C 52.117188 -32.242188 45.257812 -39.851562 41.875 -43.625 C 38.5 -47.394531 35.894531 -49.375 34.0625 -49.5625 L 34.0625 -51.015625 C 39.664062 -51.015625 43.410156 -51.132812 45.296875 -51.375 C 47.179688 -51.625 49.1875 -52.0625 51.3125 -52.6875 C 53.4375 -53.3125 55.222656 -54.15625 56.671875 -55.21875 C 62.367188 -58.894531 65.21875 -64.984375 65.21875 -73.484375 C 65.21875 -80.535156 63.644531 -86.1875 60.5 -90.4375 C 57.363281 -94.6875 52.945312 -96.863281 47.25 -96.96875 L 29.28125 -96.96875 L 29.28125 -10.578125 C 29.28125 -8.160156 30.171875 -6.035156 31.953125 -4.203125 C 33.742188 -2.367188 35.941406 -1.453125 38.546875 -1.453125 L 40.296875 -1.453125 L 40.4375 0 L 8.703125 0 L 8.703125 -1.453125 L 10.578125 -1.453125 C 12.992188 -1.453125 15.117188 -2.320312 16.953125 -4.0625 C 18.796875 -5.800781 19.765625 -7.925781 19.859375 -10.4375 L 19.859375 -90.875 C 19.765625 -93.382812 18.820312 -95.53125 17.03125 -97.3125 C 15.238281 -99.101562 13.085938 -100 10.578125 -100 L 8.703125 -100 L 8.703125 -101.453125 L 47.828125 -101.453125 C 56.328125 -101.453125 63.160156 -99.0625 68.328125 -94.28125 C 73.503906 -89.5 76.09375 -83.171875 76.09375 -75.296875 C 76.09375 -67.421875 73.722656 -60.65625 68.984375 -55 C 64.253906 -49.351562 58.457031 -46.53125 51.59375 -46.53125 C 51.59375 -46.53125 51.546875 -46.53125 51.453125 -46.53125 C 54.734375 -43.050781 58.453125 -38.988281 62.609375 -34.34375 C 79.328125 -15.894531 90.050781 -4.304688 94.78125 0.421875 C 99.519531 5.160156 103.703125 9.050781 107.328125 12.09375 C 110.953125 15.144531 114.164062 17.394531 116.96875 18.84375 C 122.664062 21.9375 128.316406 23.484375 133.921875 23.484375 C 135.078125 23.484375 136.238281 23.382812 137.40625 23.1875 Z M 137.40625 24.640625 "/></g></g></g></svg>